<svg width="30" height="30" viewBox="0 0 30 30" fill="none" xmlns="http://www.w3.org/2000/svg">
<path d="M9.66663 17.6667C9.66663 17.6667 11.6666 20.3333 15 20.3333C18.3333 20.3333 20.3333 17.6667 20.3333 17.6667M21.6666 11.32C21.14 11.9667 20.42 12.3333 19.6666 12.3333C18.9133 12.3333 18.2133 11.9667 17.6666 11.32M12.3333 11.32C11.8066 11.9667 11.0866 12.3333 10.3333 12.3333C9.57996 12.3333 8.87996 11.9667 8.33329 11.32M28.3333 15C28.3333 22.3638 22.3638 28.3333 15 28.3333C7.63616 28.3333 1.66663 22.3638 1.66663 15C1.66663 7.6362 7.63616 1.66667 15 1.66667C22.3638 1.66667 28.3333 7.6362 28.3333 15Z" stroke="#D72600" stroke-width="3" stroke-linecap="round" stroke-linejoin="round"/>
</svg>
