<svg width="412" height="392" viewBox="0 0 412 392" fill="none" xmlns="http://www.w3.org/2000/svg">
<g clip-path="url(#clip0_10_23)">
<rect width="412" height="392" fill="white"/>
<rect width="412" height="917" transform="translate(0 -31)" fill="#FFFBFA"/>
<path d="M187.5 217C187.5 217 192.75 224 201.5 224C210.25 224 215.5 217 215.5 217M219 200.34C217.617 202.037 215.727 203 213.75 203C211.773 203 209.935 202.037 208.5 200.34M194.5 200.34C193.117 202.037 191.227 203 189.25 203C187.273 203 185.435 202.037 184 200.34M236.5 210C236.5 229.33 220.83 245 201.5 245C182.17 245 166.5 229.33 166.5 210C166.5 190.67 182.17 175 201.5 175C220.83 175 236.5 190.67 236.5 210Z" stroke="#D72600" stroke-width="3" stroke-linecap="round" stroke-linejoin="round"/>
<path d="M147.464 280V262.3H151.136V280H147.464ZM162.317 280V274.588C162.317 274.284 162.317 274.008 162.317 273.76C162.317 273.512 162.317 273.288 162.317 273.088C162.317 272.56 162.249 272.08 162.113 271.648C161.977 271.208 161.733 270.856 161.381 270.592C161.029 270.328 160.521 270.196 159.857 270.196C159.281 270.196 158.781 270.328 158.357 270.592C157.941 270.856 157.621 271.224 157.397 271.696C157.173 272.168 157.061 272.712 157.061 273.328L156.029 272.584C156.029 271.48 156.269 270.512 156.749 269.68C157.229 268.848 157.877 268.196 158.693 267.724C159.517 267.252 160.429 267.016 161.429 267.016C162.477 267.016 163.337 267.228 164.009 267.652C164.689 268.068 165.193 268.652 165.521 269.404C165.857 270.148 166.025 271.02 166.025 272.02C166.025 272.428 166.025 272.884 166.025 273.388C166.025 273.892 166.025 274.408 166.025 274.936V280H162.317ZM153.341 280V267.256H157.061V280H153.341ZM173.394 280.288C172.634 280.288 171.902 280.2 171.198 280.024C170.494 279.848 169.862 279.588 169.302 279.244C168.75 278.9 168.31 278.472 167.982 277.96C167.662 277.44 167.502 276.836 167.502 276.148C167.502 276.116 167.502 276.08 167.502 276.04C167.502 275.992 167.502 275.956 167.502 275.932H171.198C171.198 275.956 171.198 275.984 171.198 276.016C171.198 276.04 171.198 276.068 171.198 276.1C171.198 276.564 171.402 276.904 171.81 277.12C172.226 277.336 172.786 277.444 173.49 277.444C173.858 277.444 174.21 277.408 174.546 277.336C174.89 277.256 175.17 277.132 175.386 276.964C175.61 276.788 175.722 276.568 175.722 276.304C175.722 275.88 175.486 275.58 175.014 275.404C174.55 275.228 173.802 275.052 172.77 274.876C172.186 274.78 171.594 274.644 170.994 274.468C170.394 274.292 169.842 274.06 169.338 273.772C168.834 273.476 168.43 273.104 168.126 272.656C167.822 272.2 167.67 271.648 167.67 271C167.67 270.136 167.93 269.408 168.45 268.816C168.978 268.224 169.678 267.776 170.55 267.472C171.422 267.168 172.382 267.016 173.43 267.016C174.43 267.016 175.362 267.184 176.226 267.52C177.09 267.848 177.79 268.324 178.326 268.948C178.862 269.564 179.13 270.308 179.13 271.18C179.13 271.196 179.13 271.22 179.13 271.252C179.13 271.284 179.13 271.316 179.13 271.348H175.47C175.47 271.316 175.47 271.288 175.47 271.264C175.47 271.24 175.47 271.22 175.47 271.204C175.47 270.884 175.366 270.624 175.158 270.424C174.958 270.224 174.702 270.076 174.39 269.98C174.078 269.876 173.754 269.824 173.418 269.824C173.114 269.824 172.798 269.86 172.47 269.932C172.15 269.996 171.878 270.108 171.654 270.268C171.43 270.42 171.318 270.636 171.318 270.916C171.318 271.188 171.438 271.412 171.678 271.588C171.918 271.756 172.254 271.896 172.686 272.008C173.118 272.112 173.618 272.212 174.186 272.308C174.722 272.396 175.286 272.52 175.878 272.68C176.478 272.832 177.038 273.052 177.558 273.34C178.086 273.62 178.51 273.992 178.83 274.456C179.158 274.912 179.322 275.492 179.322 276.196C179.322 276.924 179.154 277.548 178.818 278.068C178.482 278.588 178.026 279.012 177.45 279.34C176.882 279.66 176.246 279.896 175.542 280.048C174.846 280.208 174.13 280.288 173.394 280.288ZM180.917 285.244V267.256H184.649V285.244H180.917ZM188.585 280.288C187.577 280.288 186.653 280.02 185.813 279.484C184.973 278.94 184.301 278.212 183.797 277.3C183.293 276.38 183.041 275.348 183.041 274.204C183.041 274.172 183.041 274.144 183.041 274.12C183.041 274.088 183.041 274.052 183.041 274.012L184.649 273.976C184.649 274 184.649 274.024 184.649 274.048C184.649 274.072 184.649 274.096 184.649 274.12C184.649 274.712 184.793 275.232 185.081 275.68C185.369 276.12 185.741 276.46 186.197 276.7C186.653 276.94 187.129 277.06 187.625 277.06C188.441 277.06 189.149 276.78 189.749 276.22C190.357 275.652 190.661 274.768 190.661 273.568C190.661 272.368 190.361 271.496 189.761 270.952C189.161 270.4 188.449 270.124 187.625 270.124C187.129 270.124 186.653 270.244 186.197 270.484C185.741 270.716 185.369 271.048 185.081 271.48C184.793 271.912 184.649 272.428 184.649 273.028L183.041 272.932C183.041 271.78 183.293 270.764 183.797 269.884C184.301 268.996 184.973 268.296 185.813 267.784C186.653 267.272 187.577 267.016 188.585 267.016C189.617 267.016 190.581 267.272 191.477 267.784C192.373 268.288 193.097 269.028 193.649 270.004C194.209 270.98 194.489 272.168 194.489 273.568C194.489 275.032 194.217 276.264 193.673 277.264C193.129 278.264 192.409 279.02 191.513 279.532C190.617 280.036 189.641 280.288 188.585 280.288ZM195.944 280V267.256H199.628V280H195.944ZM197.78 265.18C197.204 265.18 196.7 265.028 196.268 264.724C195.844 264.42 195.632 263.992 195.632 263.44C195.632 262.88 195.844 262.448 196.268 262.144C196.7 261.84 197.204 261.688 197.78 261.688C198.364 261.688 198.868 261.84 199.292 262.144C199.724 262.448 199.94 262.88 199.94 263.44C199.94 264 199.724 264.432 199.292 264.736C198.868 265.032 198.364 265.18 197.78 265.18ZM201.649 280V267.256H205.381V271.648L204.613 271.168C204.701 270.568 204.861 270.016 205.093 269.512C205.325 269.008 205.625 268.572 205.993 268.204C206.361 267.828 206.797 267.536 207.301 267.328C207.813 267.12 208.397 267.016 209.053 267.016C209.565 267.016 209.965 267.056 210.253 267.136C210.549 267.208 210.733 267.264 210.805 267.304L210.193 270.64C210.121 270.6 209.961 270.536 209.713 270.448C209.465 270.36 209.145 270.316 208.753 270.316C208.113 270.316 207.577 270.424 207.145 270.64C206.713 270.856 206.365 271.144 206.101 271.504C205.845 271.856 205.661 272.248 205.549 272.68C205.437 273.112 205.381 273.548 205.381 273.988V280H201.649ZM213.162 274.744V272.284H221.61L221.25 272.908C221.25 272.844 221.25 272.784 221.25 272.728C221.25 272.664 221.25 272.604 221.25 272.548C221.25 272.092 221.142 271.656 220.926 271.24C220.71 270.816 220.374 270.472 219.918 270.208C219.47 269.936 218.894 269.8 218.19 269.8C217.486 269.8 216.878 269.952 216.366 270.256C215.862 270.552 215.474 270.98 215.202 271.54C214.938 272.1 214.806 272.776 214.806 273.568C214.806 274.384 214.934 275.084 215.19 275.668C215.454 276.244 215.842 276.688 216.354 277C216.874 277.312 217.518 277.468 218.286 277.468C218.782 277.468 219.21 277.424 219.57 277.336C219.93 277.24 220.222 277.12 220.446 276.976C220.678 276.832 220.854 276.672 220.974 276.496C221.094 276.32 221.166 276.148 221.19 275.98H224.862C224.814 276.516 224.63 277.044 224.31 277.564C223.99 278.076 223.546 278.54 222.978 278.956C222.41 279.364 221.718 279.688 220.902 279.928C220.094 280.168 219.17 280.288 218.13 280.288C216.722 280.288 215.494 280.008 214.446 279.448C213.398 278.88 212.586 278.1 212.01 277.108C211.434 276.108 211.146 274.956 211.146 273.652C211.146 272.332 211.438 271.176 212.022 270.184C212.614 269.184 213.434 268.408 214.482 267.856C215.538 267.296 216.758 267.016 218.142 267.016C219.558 267.016 220.782 267.3 221.814 267.868C222.846 268.428 223.642 269.216 224.202 270.232C224.762 271.24 225.042 272.416 225.042 273.76C225.042 273.96 225.038 274.152 225.03 274.336C225.022 274.52 225.01 274.656 224.994 274.744H213.162ZM239.282 262.3H245.582V280H242.054V264.496L242.126 264.544L238.67 280H233.798L230.282 264.508L230.354 264.472V280H226.814V262.3H233.114L236.342 278.236H236.03L239.282 262.3ZM249.362 274.744V272.284H257.81L257.45 272.908C257.45 272.844 257.45 272.784 257.45 272.728C257.45 272.664 257.45 272.604 257.45 272.548C257.45 272.092 257.342 271.656 257.126 271.24C256.91 270.816 256.574 270.472 256.118 270.208C255.67 269.936 255.094 269.8 254.39 269.8C253.686 269.8 253.078 269.952 252.566 270.256C252.062 270.552 251.674 270.98 251.402 271.54C251.138 272.1 251.006 272.776 251.006 273.568C251.006 274.384 251.134 275.084 251.39 275.668C251.654 276.244 252.042 276.688 252.554 277C253.074 277.312 253.718 277.468 254.486 277.468C254.982 277.468 255.41 277.424 255.77 277.336C256.13 277.24 256.422 277.12 256.646 276.976C256.878 276.832 257.054 276.672 257.174 276.496C257.294 276.32 257.366 276.148 257.39 275.98H261.062C261.014 276.516 260.83 277.044 260.51 277.564C260.19 278.076 259.746 278.54 259.178 278.956C258.61 279.364 257.918 279.688 257.102 279.928C256.294 280.168 255.37 280.288 254.33 280.288C252.922 280.288 251.694 280.008 250.646 279.448C249.598 278.88 248.786 278.1 248.21 277.108C247.634 276.108 247.346 274.956 247.346 273.652C247.346 272.332 247.638 271.176 248.222 270.184C248.814 269.184 249.634 268.408 250.682 267.856C251.738 267.296 252.958 267.016 254.342 267.016C255.758 267.016 256.982 267.3 258.014 267.868C259.046 268.428 259.842 269.216 260.402 270.232C260.962 271.24 261.242 272.416 261.242 273.76C261.242 273.96 261.238 274.152 261.23 274.336C261.222 274.52 261.21 274.656 261.194 274.744H249.362Z" fill="#D72600"/>
</g>
<defs>
<clipPath id="clip0_10_23">
<rect width="412" height="392" fill="white"/>
</clipPath>
</defs>
</svg>
